<svg width="101" height="100" viewBox="0 0 101 100" fill="none" xmlns="http://www.w3.org/2000/svg">
<path d="M89.7402 48.1775V34.9887C89.7402 31.0587 86.0979 28.1608 82.1679 28.1608H62.059C58.129 28.1608 55.2071 31.0587 55.2071 34.9887V36.16V48.1775C48.9719 52.7162 44.8846 59.5845 43.9071 67.4427C43.91 67.4542 43.8203 67.4662 43.8236 67.4777C43.6735 68.6326 43.5469 69.8077 43.5469 71.001C43.5469 86.775 56.3366 99.5619 72.1106 99.5619C87.8845 99.5619 100.901 86.7745 100.901 71.001C100.901 61.6728 96.455 53.3896 89.7402 48.1775ZM72.1134 35.1744C74.2631 35.1744 76.0056 36.9168 76.0056 39.0665C76.0056 41.2162 74.2631 42.9587 72.1134 42.9587C69.9638 42.9587 68.2213 41.2162 68.2213 39.0665C68.2213 36.9168 69.9638 35.1744 72.1134 35.1744ZM83.2379 82.126C80.2666 85.0973 76.3155 86.7338 72.1134 86.7338C67.911 86.7338 63.9603 85.0973 60.9885 82.126C58.9846 80.1221 57.5908 77.6717 56.8934 74.9997C56.7318 74.38 56.6095 73.7483 56.5232 73.108C56.5145 73.0433 56.5074 72.9785 56.4992 72.9138C56.4695 72.6682 56.446 72.4217 56.4277 72.1737C56.422 72.0941 56.4148 72.015 56.4105 71.9354C56.3922 71.6255 56.3803 71.3142 56.3803 71.001C56.3803 70.7051 56.3903 70.4111 56.4066 70.1185C56.411 70.0437 56.4181 69.9694 56.4229 69.8945C56.4388 69.6686 56.458 69.4437 56.4834 69.2197C56.4915 69.1482 56.5006 69.0773 56.5098 69.0063C56.54 68.7674 56.575 68.53 56.6158 68.294C56.6244 68.2451 56.6321 68.1967 56.6412 68.1477C56.6934 67.8633 56.7515 67.5803 56.8186 67.2998C57.4877 64.5122 58.9103 61.9538 60.9885 59.8756C63.9598 56.9043 67.911 55.2678 72.1134 55.2678C76.3159 55.2678 80.2666 56.9043 83.2379 59.8756C86.2092 62.8469 87.8457 66.7981 87.8457 71.0001C87.8462 75.2035 86.2097 79.1547 83.2379 82.126Z" fill="#000"/>
<path d="M40.096 82.1342C38.4149 83.9506 36.316 85.3549 33.9227 86.223C29.972 87.6562 25.7 87.4648 21.8936 85.6844C18.0868 83.904 15.2014 80.7481 13.7688 76.7974C12.3356 72.8467 12.527 68.5747 14.3074 64.7684C16.0878 60.9616 19.2437 58.0761 23.1944 56.6435C27.1451 55.2104 31.4171 55.4017 35.2234 57.1821C36.9985 58.0123 38.5698 59.1447 39.8907 60.5141C40.4355 58.833 41.2614 57.1922 42.0629 55.6214C43.9766 51.8693 47.0544 48.4668 49.9321 45.6571V34.9888C49.9321 34.5523 49.7926 34.1207 49.8367 33.6957L37.8029 28.1062C34.2431 26.4414 29.9667 27.9776 28.3015 31.5374L22.6941 43.4844C14.2201 45.2754 6.64917 50.8836 2.69705 59.3342C-3.98511 73.6227 2.17617 90.6226 16.4647 97.3048C26.7786 102.128 38.5007 100.255 46.7397 93.4668C44.2936 90.7095 42.3243 87.6024 40.884 84.198C40.5957 83.5174 40.3372 82.8278 40.096 82.1342ZM41.4504 37.043C43.6001 37.043 45.3426 38.7855 45.3426 40.9352C45.3426 43.0849 43.6001 44.8274 41.4504 44.8274C39.3007 44.8274 37.5583 43.0849 37.5583 40.9352C37.5583 38.7855 39.3007 37.043 41.4504 37.043Z" fill="#000"/>
<path d="M47.4965 29.6218C52.8919 29.6218 57.2809 25.2322 57.2809 19.8374C57.2809 19.7069 57.2665 19.5798 57.2613 19.4503C57.7332 19.5208 58.2128 19.5688 58.704 19.5688C60.1755 19.5688 61.5669 19.233 62.8201 18.6484C64.1046 22.5554 67.7819 25.3867 72.1129 25.3867C77.5082 25.3867 81.8973 20.9971 81.8973 15.6023C81.8973 10.2069 77.5077 5.81788 72.1129 5.81788C70.6414 5.81788 69.25 6.15362 67.9967 6.73828C66.7123 2.83124 63.035 0 58.704 0C53.3087 0 48.9196 4.38955 48.9196 9.78439C48.9196 9.91485 48.934 10.0419 48.9393 10.1714C48.4673 10.1009 47.9877 10.053 47.4965 10.053C42.1012 10.053 37.7122 14.4425 37.7122 19.8374C37.7122 25.2322 42.1012 29.6218 47.4965 29.6218ZM72.1134 11.1542C74.5696 11.1542 76.561 13.1456 76.561 15.6018C76.561 18.058 74.5696 20.0494 72.1134 20.0494C69.6572 20.0494 67.6658 18.058 67.6658 15.6018C67.6658 13.1456 69.6567 11.1542 72.1134 11.1542ZM58.7045 5.33633C61.1606 5.33633 63.152 7.32774 63.152 9.78391C63.152 12.2401 61.1606 14.2315 58.7045 14.2315C56.2483 14.2315 54.2569 12.2401 54.2569 9.78391C54.2569 7.32774 56.2483 5.33633 58.7045 5.33633ZM47.4965 15.3898C49.9527 15.3898 51.9441 17.3812 51.9441 19.8374C51.9441 22.2935 49.9527 24.285 47.4965 24.285C45.0404 24.285 43.049 22.2935 43.049 19.8374C43.049 17.3807 45.0404 15.3898 47.4965 15.3898Z" fill="#000"/>
</svg>
