<svg width="720" height="720" viewBox="0 0 720 720" fill="none" xmlns="http://www.w3.org/2000/svg">
<path d="M94.6325 36.0025L300.171 193.531L342.017 44.6173L401.094 195.992L564.786 54.4629L476.17 237.836L616.478 232.913L525.401 347.367L647.247 426.131L502.016 428.593L630.016 582.429L446.632 497.511L426.94 662.424L337.094 529.509L211.555 700.575L223.863 486.435L52.7864 520.895L159.863 380.596L72.4787 237.836L194.325 261.219L94.6325 36.0025Z" fill="#FF8000"/>
<path d="M160.199 118.798L314.523 237.075L345.942 125.266L390.299 238.923L513.204 132.659L446.669 270.341L552.016 266.645L483.633 352.58L575.118 411.719L466.075 413.567L562.181 529.072L424.49 465.313L409.705 589.134L342.246 489.338L247.988 617.78L257.229 456.997L128.779 482.87L209.176 377.529L143.565 270.341L235.05 287.897L160.199 118.798Z" fill="#FF8000"/>
<path d="M226.237 204.21L325.339 280.164L345.515 208.363L374 281.35L452.926 213.111L410.199 301.526L477.85 299.152L433.936 354.337L492.685 392.314L422.661 393.501L484.377 467.675L395.957 426.731L386.462 506.245L343.142 442.159L282.612 524.64L288.546 421.39L206.06 438.005L257.688 370.359L215.555 301.526L274.304 312.8L226.237 204.21Z" fill="#FF8000"/>
</svg>
