<svg width="122" height="101" viewBox="0 0 122 101" fill="none" xmlns="http://www.w3.org/2000/svg">
<rect x="30" y="14" width="62" height="73" rx="10" fill="white"/>
<path d="M60.8946 0.3125C43.8168 0.3125 30.1418 8.52679 20.1868 18.3036C10.2951 27.9911 3.67956 39.5982 0.551436 47.567C-0.146051 49.3304 -0.146051 51.2946 0.551436 53.058C3.67956 61.0268 10.2951 72.6339 20.1868 82.3214C30.1418 92.0982 43.8168 100.312 60.8946 100.312C77.9725 100.312 91.6475 92.0982 101.603 82.3214C111.494 72.6116 118.11 61.0268 121.259 53.058C121.956 51.2946 121.956 49.3304 121.259 47.567C118.11 39.5982 111.494 27.9911 101.603 18.3036C91.6475 8.52679 77.9725 0.3125 60.8946 0.3125ZM30.4588 50.3125C30.4588 41.7877 33.6655 33.612 39.3733 27.5841C45.0811 21.5561 52.8226 18.1696 60.8946 18.1696C68.9667 18.1696 76.7082 21.5561 82.416 27.5841C88.1238 33.612 91.3304 41.7877 91.3304 50.3125C91.3304 58.8373 88.1238 67.013 82.416 73.0409C76.7082 79.0689 68.9667 82.4554 60.8946 82.4554C52.8226 82.4554 45.0811 79.0689 39.3733 73.0409C33.6655 67.013 30.4588 58.8373 30.4588 50.3125ZM60.8946 36.0268C60.8946 43.9062 54.8286 50.3125 47.3676 50.3125C45.867 50.3125 44.4297 50.0446 43.077 49.5759C41.9145 49.1741 40.5618 49.933 40.6041 51.2277C40.6675 52.7679 40.8789 54.308 41.2804 55.8482C44.1761 67.2768 55.3147 74.0625 66.1363 71.0045C76.958 67.9464 83.3833 56.183 80.4877 44.7545C78.1416 35.4911 70.3847 29.2634 61.7612 28.8839C60.5353 28.8393 59.8167 30.2455 60.1971 31.4955C60.641 32.9241 60.8946 34.442 60.8946 36.0268Z" fill="#CF1010"/>
</svg>
